<mxfile host="app.diagrams.net" modified="2022-06-16T21:22:54.702Z" agent="5.0 (Windows NT 10.0; Win64; x64) AppleWebKit/537.36 (KHTML, like Gecko) Chrome/102.0.0.0 Safari/537.36" etag="xZRMWbuTPNcpkdFceIri" version="20.0.1" type="github">
  <diagram id="EXZT-ICQkFPjn3lPqpmB" name="Page-1">
    <mxGraphModel dx="720" dy="1644" grid="1" gridSize="10" guides="1" tooltips="1" connect="1" arrows="1" fold="1" page="1" pageScale="1" pageWidth="850" pageHeight="1100" math="0" shadow="0">
      <root>
        <mxCell id="0" />
        <mxCell id="1" parent="0" />
        <mxCell id="orOQ1NgVfUw4ZZZ5vbPm-1" value="CustomUser" style="swimlane;childLayout=stackLayout;horizontal=1;startSize=30;horizontalStack=0;rounded=1;fontSize=14;fontStyle=0;strokeWidth=2;resizeParent=0;resizeLast=1;shadow=0;dashed=0;align=center;" vertex="1" parent="1">
          <mxGeometry x="100" y="130" width="160" height="120" as="geometry" />
        </mxCell>
        <mxCell id="orOQ1NgVfUw4ZZZ5vbPm-2" value="+is_basicuser - Boolean&#xa;+is_prouser - Boolean" style="align=left;strokeColor=none;fillColor=none;spacingLeft=4;fontSize=12;verticalAlign=top;resizable=0;rotatable=0;part=1;" vertex="1" parent="orOQ1NgVfUw4ZZZ5vbPm-1">
          <mxGeometry y="30" width="160" height="90" as="geometry" />
        </mxCell>
        <mxCell id="orOQ1NgVfUw4ZZZ5vbPm-5" value="Elder" style="swimlane;childLayout=stackLayout;horizontal=1;startSize=30;horizontalStack=0;rounded=1;fontSize=14;fontStyle=0;strokeWidth=2;resizeParent=0;resizeLast=1;shadow=0;dashed=0;align=center;fontColor=#000000;" vertex="1" parent="1">
          <mxGeometry x="345" y="130" width="160" height="120" as="geometry" />
        </mxCell>
        <mxCell id="orOQ1NgVfUw4ZZZ5vbPm-6" value="+First Name - CharField&#xa;+Last Name - CharField&#xa;+Email - EmailField&#xa;+Contact- CharField&#xa;+Neighborhood- FK" style="align=left;strokeColor=none;fillColor=none;spacingLeft=4;fontSize=12;verticalAlign=top;resizable=0;rotatable=0;part=1;fontColor=#000000;" vertex="1" parent="orOQ1NgVfUw4ZZZ5vbPm-5">
          <mxGeometry y="30" width="160" height="90" as="geometry" />
        </mxCell>
        <mxCell id="orOQ1NgVfUw4ZZZ5vbPm-7" value="Resident" style="swimlane;childLayout=stackLayout;horizontal=1;startSize=30;horizontalStack=0;rounded=1;fontSize=14;fontStyle=0;strokeWidth=2;resizeParent=0;resizeLast=1;shadow=0;dashed=0;align=center;fontColor=#000000;" vertex="1" parent="1">
          <mxGeometry x="345" y="260" width="160" height="120" as="geometry" />
        </mxCell>
        <mxCell id="orOQ1NgVfUw4ZZZ5vbPm-8" value="+First Name - CharField&#xa;+Last Name - CharField&#xa;+Email - EmailField&#xa;+Contact- CharField&#xa;+Neighborhood- FK" style="align=left;strokeColor=none;fillColor=none;spacingLeft=4;fontSize=12;verticalAlign=top;resizable=0;rotatable=0;part=1;fontColor=#000000;" vertex="1" parent="orOQ1NgVfUw4ZZZ5vbPm-7">
          <mxGeometry y="30" width="160" height="90" as="geometry" />
        </mxCell>
        <mxCell id="orOQ1NgVfUw4ZZZ5vbPm-11" value="Controller" style="swimlane;childLayout=stackLayout;horizontal=1;startSize=30;horizontalStack=0;rounded=1;fontSize=14;fontStyle=0;strokeWidth=2;resizeParent=0;resizeLast=1;shadow=0;dashed=0;align=center;fontColor=#000000;" vertex="1" parent="1">
          <mxGeometry x="345" width="160" height="120" as="geometry" />
        </mxCell>
        <mxCell id="orOQ1NgVfUw4ZZZ5vbPm-12" value="+First Name - CharField&#xa;+Last Name - CharField&#xa;+Email - EmailField&#xa;+Contact- CharField&#xa;+Neighborhood- FK" style="align=left;strokeColor=none;fillColor=none;spacingLeft=4;fontSize=12;verticalAlign=top;resizable=0;rotatable=0;part=1;fontColor=#000000;" vertex="1" parent="orOQ1NgVfUw4ZZZ5vbPm-11">
          <mxGeometry y="30" width="160" height="90" as="geometry" />
        </mxCell>
        <mxCell id="orOQ1NgVfUw4ZZZ5vbPm-15" value="" style="edgeStyle=entityRelationEdgeStyle;fontSize=12;html=1;endArrow=ERmandOne;startArrow=ERmandOne;rounded=0;fontColor=#000000;strokeColor=#000066;exitX=1;exitY=0.25;exitDx=0;exitDy=0;entryX=-0.004;entryY=0.656;entryDx=0;entryDy=0;entryPerimeter=0;" edge="1" parent="1" source="orOQ1NgVfUw4ZZZ5vbPm-2" target="orOQ1NgVfUw4ZZZ5vbPm-12">
          <mxGeometry width="100" height="100" relative="1" as="geometry">
            <mxPoint x="250" y="190" as="sourcePoint" />
            <mxPoint x="350" y="90" as="targetPoint" />
          </mxGeometry>
        </mxCell>
        <mxCell id="orOQ1NgVfUw4ZZZ5vbPm-16" value="" style="edgeStyle=entityRelationEdgeStyle;fontSize=12;html=1;endArrow=ERmandOne;startArrow=ERmandOne;rounded=0;fontColor=#000000;strokeColor=#000066;exitX=1;exitY=0.75;exitDx=0;exitDy=0;" edge="1" parent="1" source="orOQ1NgVfUw4ZZZ5vbPm-2">
          <mxGeometry width="100" height="100" relative="1" as="geometry">
            <mxPoint x="260" y="247" as="sourcePoint" />
            <mxPoint x="345" y="330" as="targetPoint" />
          </mxGeometry>
        </mxCell>
        <mxCell id="orOQ1NgVfUw4ZZZ5vbPm-18" value="" style="edgeStyle=entityRelationEdgeStyle;fontSize=12;html=1;endArrow=ERmandOne;startArrow=ERmandOne;rounded=0;fontColor=#000000;strokeColor=#000066;entryX=0;entryY=0.5;entryDx=0;entryDy=0;exitX=1;exitY=0.5;exitDx=0;exitDy=0;" edge="1" parent="1" source="orOQ1NgVfUw4ZZZ5vbPm-2" target="orOQ1NgVfUw4ZZZ5vbPm-6">
          <mxGeometry width="100" height="100" relative="1" as="geometry">
            <mxPoint x="260" y="230" as="sourcePoint" />
            <mxPoint x="360" y="200" as="targetPoint" />
          </mxGeometry>
        </mxCell>
        <mxCell id="orOQ1NgVfUw4ZZZ5vbPm-19" value="Neighborhood" style="swimlane;childLayout=stackLayout;horizontal=1;startSize=30;horizontalStack=0;rounded=1;fontSize=14;fontStyle=0;strokeWidth=2;resizeParent=0;resizeLast=1;shadow=0;dashed=0;align=center;fontColor=#000000;" vertex="1" parent="1">
          <mxGeometry x="100" width="160" height="120" as="geometry" />
        </mxCell>
        <mxCell id="orOQ1NgVfUw4ZZZ5vbPm-20" value="+Name&#xa;+Location&#xa;+Population&#xa;+Elder - FK" style="align=left;strokeColor=none;fillColor=none;spacingLeft=4;fontSize=12;verticalAlign=top;resizable=0;rotatable=0;part=1;fontColor=#000000;" vertex="1" parent="orOQ1NgVfUw4ZZZ5vbPm-19">
          <mxGeometry y="30" width="160" height="90" as="geometry" />
        </mxCell>
        <mxCell id="orOQ1NgVfUw4ZZZ5vbPm-21" value="Services" style="swimlane;childLayout=stackLayout;horizontal=1;startSize=30;horizontalStack=0;rounded=1;fontSize=14;fontStyle=0;strokeWidth=2;resizeParent=0;resizeLast=1;shadow=0;dashed=0;align=center;fontColor=#000000;" vertex="1" parent="1">
          <mxGeometry x="100" y="260" width="160" height="120" as="geometry" />
        </mxCell>
        <mxCell id="orOQ1NgVfUw4ZZZ5vbPm-22" value="+Neighborhood - FK&#xa;+Location&#xa;+Name&#xa;+Contact&#xa;+Custom User FK" style="align=left;strokeColor=none;fillColor=none;spacingLeft=4;fontSize=12;verticalAlign=top;resizable=0;rotatable=0;part=1;fontColor=#000000;" vertex="1" parent="orOQ1NgVfUw4ZZZ5vbPm-21">
          <mxGeometry y="30" width="160" height="90" as="geometry" />
        </mxCell>
        <mxCell id="orOQ1NgVfUw4ZZZ5vbPm-23" value="" style="edgeStyle=entityRelationEdgeStyle;fontSize=12;html=1;endArrow=ERmandOne;startArrow=ERmandOne;rounded=0;fontColor=#000000;strokeColor=#009999;entryX=0;entryY=0.25;entryDx=0;entryDy=0;" edge="1" parent="1" target="orOQ1NgVfUw4ZZZ5vbPm-6">
          <mxGeometry width="100" height="100" relative="1" as="geometry">
            <mxPoint x="260" y="60" as="sourcePoint" />
            <mxPoint x="340" y="180" as="targetPoint" />
          </mxGeometry>
        </mxCell>
        <mxCell id="orOQ1NgVfUw4ZZZ5vbPm-26" value="" style="edgeStyle=entityRelationEdgeStyle;fontSize=12;html=1;endArrow=ERoneToMany;rounded=0;fontColor=#000000;strokeColor=#009999;exitX=0;exitY=0.25;exitDx=0;exitDy=0;entryX=1;entryY=0.163;entryDx=0;entryDy=0;entryPerimeter=0;" edge="1" parent="1" source="orOQ1NgVfUw4ZZZ5vbPm-12" target="orOQ1NgVfUw4ZZZ5vbPm-20">
          <mxGeometry width="100" height="100" relative="1" as="geometry">
            <mxPoint x="280" y="-50" as="sourcePoint" />
            <mxPoint x="380" y="-150" as="targetPoint" />
          </mxGeometry>
        </mxCell>
        <mxCell id="orOQ1NgVfUw4ZZZ5vbPm-27" value="" style="edgeStyle=entityRelationEdgeStyle;fontSize=12;html=1;endArrow=ERoneToMany;rounded=0;fontColor=#000000;strokeColor=#009999;entryX=0;entryY=0.25;entryDx=0;entryDy=0;" edge="1" parent="1" target="orOQ1NgVfUw4ZZZ5vbPm-8">
          <mxGeometry width="100" height="100" relative="1" as="geometry">
            <mxPoint x="260" y="80" as="sourcePoint" />
            <mxPoint x="420" y="180" as="targetPoint" />
          </mxGeometry>
        </mxCell>
      </root>
    </mxGraphModel>
  </diagram>
</mxfile>
